<svg width="63" height="63" viewBox="0 0 63 63" fill="none" xmlns="http://www.w3.org/2000/svg">
<path d="M49.9803 0C49.5186 0 49.0453 0.0605152 48.578 0.192269L3.66404 12.8256C2.36266 13.1907 1.2589 14.0548 0.608247 15.2302C-0.0180631 16.3619 -0.169842 17.6994 0.195511 18.9423L1.02098 22.298C1.03304 22.3441 1.04759 22.3894 1.06456 22.4339C1.066 22.4493 1.06771 22.4647 1.06969 22.48L6.99413 58.8393C7.38443 61.2453 9.5105 63 11.9623 63C12.2292 63 12.4977 62.9782 12.7647 62.9359L22.7473 61.3696L58.7554 55.7374C60.0871 55.5291 61.2808 54.806 62.0675 53.7198C62.8291 52.6689 63.144 51.3578 62.9366 50.0796L57.0096 13.7049C56.9541 13.3623 56.7652 13.0555 56.4841 12.8518C56.2031 12.6481 55.8528 12.564 55.5099 12.6179L19.2583 18.2963L54.6947 7.7292C55.028 7.63002 55.3084 7.40262 55.4742 7.09694C55.64 6.79125 55.6777 6.43225 55.5791 6.09876L54.828 3.57107C54.1922 1.40045 52.1644 0 49.9803 0ZM49.9803 2.62511C51.0486 2.62511 52.0119 3.2958 52.308 4.30682L52.3106 4.31194L52.6746 5.54759L47.4936 3.22498L49.2907 2.71996C49.5216 2.65483 49.7515 2.62511 49.9803 2.62511ZM40.0643 5.3143L45.4581 7.74458L38.2134 9.90568L32.6146 7.40875L40.0643 5.3143ZM25.1827 9.50063L30.9277 12.077L23.6677 14.2433L17.7637 11.5874L25.1827 9.50063ZM10.3011 13.687L16.3948 16.412L9.12703 18.5783L3.31026 15.9788C3.59659 15.691 3.94909 15.4725 4.37415 15.3533L10.3011 13.687ZM54.628 15.4148L60.3474 50.5025C60.4437 51.1003 60.3064 51.6767 59.9423 52.1791C59.5635 52.7021 59.0163 53.0389 58.3503 53.143L22.3423 58.7752L12.3571 60.3441H12.3546C12.2261 60.3646 12.091 60.3749 11.9623 60.3749C10.7338 60.3749 9.77051 59.5568 9.58591 58.4189L4.53822 27.4457L8.80658 22.5877L16.4358 21.3931L12.0085 26.4331L19.6608 25.2385L24.0778 20.1959L31.6865 19.0064L27.2721 24.0438L34.8987 22.8492L39.326 17.8092L46.945 16.6171L42.5382 21.6546L50.152 20.4599H50.1648L54.5793 15.4225L54.628 15.4148ZM51.8594 22.8441L8.88349 29.5786C8.53829 29.6337 8.22945 29.8206 8.02469 30.1041C7.81993 30.3876 7.73496 30.7408 7.7914 31.086L11.9239 56.4347C12.0289 57.0778 12.5833 57.537 13.2159 57.537C13.2842 57.537 13.3515 57.5321 13.421 57.5216L56.3969 50.7948C56.7421 50.741 57.0509 50.5528 57.2557 50.2693C57.4605 49.9857 57.5454 49.6326 57.489 49.2874L53.3565 23.9285C53.241 23.2157 52.5721 22.7404 51.8594 22.8441Z" fill="black"/>
</svg>
