<svg width="153" height="138" viewBox="0 0 153 138" fill="none" xmlns="http://www.w3.org/2000/svg">
<mask id="mask0_4344_5306" style="mask-type:luminance" maskUnits="userSpaceOnUse" x="0" y="0" width="153" height="138">
<path d="M0 0H152.396V138H0V0Z" fill="white"/>
</mask>
<g mask="url(#mask0_4344_5306)">
<path d="M2.75348 0C1.23325 0 0 1.23584 0 2.75866C0 4.28406 1.23325 5.5199 2.75348 5.5199C4.2763 5.5199 5.50956 4.28406 5.50956 2.75866C5.50956 1.23584 4.2763 0 2.75348 0ZM17.4465 0C15.9237 0 14.6904 1.23584 14.6904 2.75866C14.6904 4.28406 15.9237 5.5199 17.4465 5.5199C18.9667 5.5199 20.2 4.28406 20.2 2.75866C20.2 1.23584 18.9667 0 17.4465 0ZM32.1369 0C30.6141 0 29.3834 1.23584 29.3834 2.75866C29.3834 4.28406 30.6141 5.5199 32.1369 5.5199C33.6597 5.5199 34.8904 4.28406 34.8904 2.75866C34.8904 1.23584 33.6597 0 32.1369 0ZM46.8273 0C45.3071 0 44.0739 1.23584 44.0739 2.75866C44.0739 4.28406 45.3071 5.5199 46.8273 5.5199C48.3502 5.5199 49.5834 4.28406 49.5834 2.75866C49.5834 1.23584 48.3502 0 46.8273 0ZM61.5204 0C59.9975 0 58.7643 1.23584 58.7643 2.75866C58.7643 4.28406 59.9975 5.5199 61.5204 5.5199C63.0406 5.5199 64.2738 4.28406 64.2738 2.75866C64.2738 1.23584 63.0406 0 61.5204 0ZM76.2108 0C74.688 0 73.4547 1.23584 73.4547 2.75866C73.4547 4.28406 74.688 5.5199 76.2108 5.5199C77.731 5.5199 78.9643 4.28406 78.9643 2.75866C78.9643 1.23584 77.731 0 76.2108 0ZM90.9012 0C89.381 0 88.1477 1.23584 88.1477 2.75866C88.1477 4.28406 89.381 5.5199 90.9012 5.5199C92.424 5.5199 93.6573 4.28406 93.6573 2.75866C93.6573 1.23584 92.424 0 90.9012 0ZM105.592 0C104.071 0 102.838 1.23584 102.838 2.75866C102.838 4.28406 104.071 5.5199 105.592 5.5199C107.114 5.5199 108.348 4.28406 108.348 2.75866C108.348 1.23584 107.114 0 105.592 0ZM120.285 0C118.762 0 117.529 1.23584 117.529 2.75866C117.529 4.28406 118.762 5.5199 120.285 5.5199C121.805 5.5199 123.038 4.28406 123.038 2.75866C123.038 1.23584 121.805 0 120.285 0ZM134.975 0C133.455 0 132.222 1.23584 132.222 2.75866C132.222 4.28406 133.455 5.5199 134.975 5.5199C136.498 5.5199 137.729 4.28406 137.729 2.75866C137.703 1.23584 136.469 0 134.975 0ZM149.64 5.5199C151.162 5.5199 152.396 4.28406 152.396 2.75866C152.396 1.23584 151.162 0 149.64 0C148.119 0 146.886 1.23584 146.886 2.75866C146.886 4.28406 148.119 5.5199 149.64 5.5199ZM2.75348 14.7189C1.23325 14.7189 0 15.9547 0 17.4801C0 19.0029 1.23325 20.2388 2.75348 20.2388C4.2763 20.2388 5.50956 19.0029 5.50956 17.4801C5.50956 15.9547 4.2763 14.7189 2.75348 14.7189ZM17.4465 14.7189C15.9237 14.7189 14.6904 15.9547 14.6904 17.4801C14.6904 19.0029 15.9237 20.2388 17.4465 20.2388C18.9667 20.2388 20.2 19.0029 20.2 17.4801C20.2 15.9547 18.9667 14.7189 17.4465 14.7189ZM32.1369 14.7189C30.6141 14.7189 29.3834 15.9547 29.3834 17.4801C29.3834 19.0029 30.6141 20.2388 32.1369 20.2388C33.6597 20.2388 34.8904 19.0029 34.8904 17.4801C34.8904 15.9547 33.6597 14.7189 32.1369 14.7189ZM46.8273 14.7189C45.3071 14.7189 44.0739 15.9547 44.0739 17.4801C44.0739 19.0029 45.3071 20.2388 46.8273 20.2388C48.3502 20.2388 49.5834 19.0029 49.5834 17.4801C49.5834 15.9547 48.3502 14.7189 46.8273 14.7189ZM61.5204 14.7189C59.9975 14.7189 58.7643 15.9547 58.7643 17.4801C58.7643 19.0029 59.9975 20.2388 61.5204 20.2388C63.0406 20.2388 64.2738 19.0029 64.2738 17.4801C64.2738 15.9547 63.0406 14.7189 61.5204 14.7189ZM76.2108 14.7189C74.688 14.7189 73.4547 15.9547 73.4547 17.4801C73.4547 19.0029 74.688 20.2388 76.2108 20.2388C77.731 20.2388 78.9643 19.0029 78.9643 17.4801C78.9643 15.9547 77.731 14.7189 76.2108 14.7189ZM90.9012 14.7189C89.381 14.7189 88.1477 15.9547 88.1477 17.4801C88.1477 19.0029 89.381 20.2388 90.9012 20.2388C92.424 20.2388 93.6573 19.0029 93.6573 17.4801C93.6573 15.9547 92.424 14.7189 90.9012 14.7189ZM105.592 14.7189C104.071 14.7189 102.838 15.9547 102.838 17.4801C102.838 19.0029 104.071 20.2388 105.592 20.2388C107.114 20.2388 108.348 19.0029 108.348 17.4801C108.348 15.9547 107.114 14.7189 105.592 14.7189ZM120.285 14.7189C118.762 14.7189 117.529 15.9547 117.529 17.4801C117.529 19.0029 118.762 20.2388 120.285 20.2388C121.805 20.2388 123.038 19.0029 123.038 17.4801C123.038 15.9547 121.805 14.7189 120.285 14.7189ZM134.975 14.7189C133.455 14.7189 132.222 15.9547 132.222 17.4801C132.222 19.0029 133.455 20.2388 134.975 20.2388C136.498 20.2388 137.729 19.0029 137.729 17.4801C137.703 15.9547 136.469 14.7189 134.975 14.7189ZM149.64 14.7189C148.119 14.7189 146.886 15.9547 146.886 17.4801C146.886 19.0029 148.119 20.2388 149.64 20.2388C151.162 20.2388 152.396 19.0029 152.396 17.4801C152.396 15.9547 151.162 14.7189 149.64 14.7189ZM2.75348 29.4403C1.23325 29.4403 0 30.6736 0 32.199C0 33.7244 1.23325 34.9602 2.75348 34.9602C4.2763 34.9602 5.50956 33.7244 5.50956 32.199C5.50956 30.6736 4.2763 29.4403 2.75348 29.4403ZM17.4465 29.4403C15.9237 29.4403 14.6904 30.6736 14.6904 32.199C14.6904 33.7244 15.9237 34.9602 17.4465 34.9602C18.9667 34.9602 20.2 33.7244 20.2 32.199C20.2 30.6736 18.9667 29.4403 17.4465 29.4403ZM32.1369 29.4403C30.6141 29.4403 29.3834 30.6736 29.3834 32.199C29.3834 33.7244 30.6141 34.9602 32.1369 34.9602C33.6597 34.9602 34.8904 33.7244 34.8904 32.199C34.8904 30.6736 33.6597 29.4403 32.1369 29.4403ZM46.8273 29.4403C45.3071 29.4403 44.0739 30.6736 44.0739 32.199C44.0739 33.7244 45.3071 34.9602 46.8273 34.9602C48.3502 34.9602 49.5834 33.7244 49.5834 32.199C49.5834 30.6736 48.3502 29.4403 46.8273 29.4403ZM61.5204 29.4403C59.9975 29.4403 58.7643 30.6736 58.7643 32.199C58.7643 33.7244 59.9975 34.9602 61.5204 34.9602C63.0406 34.9602 64.2738 33.7244 64.2738 32.199C64.2738 30.6736 63.0406 29.4403 61.5204 29.4403ZM76.2108 29.4403C74.688 29.4403 73.4547 30.6736 73.4547 32.199C73.4547 33.7244 74.688 34.9602 76.2108 34.9602C77.731 34.9602 78.9643 33.7244 78.9643 32.199C78.9643 30.6736 77.731 29.4403 76.2108 29.4403ZM90.9012 29.4403C89.381 29.4403 88.1477 30.6736 88.1477 32.199C88.1477 33.7244 89.381 34.9602 90.9012 34.9602C92.424 34.9602 93.6573 33.7244 93.6573 32.199C93.6573 30.6736 92.424 29.4403 90.9012 29.4403ZM105.592 29.4403C104.071 29.4403 102.838 30.6736 102.838 32.199C102.838 33.7244 104.071 34.9602 105.592 34.9602C107.114 34.9602 108.348 33.7244 108.348 32.199C108.348 30.6736 107.114 29.4403 105.592 29.4403ZM120.285 29.4403C118.762 29.4403 117.529 30.6736 117.529 32.199C117.529 33.7244 118.762 34.9602 120.285 34.9602C121.805 34.9602 123.038 33.7244 123.038 32.199C123.038 30.6736 121.805 29.4403 120.285 29.4403ZM134.975 29.4403C133.455 29.4403 132.222 30.6736 132.222 32.199C132.222 33.7244 133.455 34.9602 134.975 34.9602C136.498 34.9602 137.729 33.7244 137.729 32.199C137.703 30.6736 136.469 29.4403 134.975 29.4403ZM149.64 29.4403C148.119 29.4403 146.886 30.6736 146.886 32.199C146.886 33.7244 148.119 34.9602 149.64 34.9602C151.162 34.9602 152.396 33.7244 152.396 32.199C152.396 30.6736 151.162 29.4403 149.64 29.4403ZM2.75348 44.1592C1.23325 44.1592 0 45.395 0 46.9204C0 48.4432 1.23325 49.6791 2.75348 49.6791C4.2763 49.6791 5.50956 48.4432 5.50956 46.9204C5.50956 45.395 4.2763 44.1592 2.75348 44.1592ZM17.4465 44.1592C15.9237 44.1592 14.6904 45.395 14.6904 46.9204C14.6904 48.4432 15.9237 49.6791 17.4465 49.6791C18.9667 49.6791 20.2 48.4432 20.2 46.9204C20.2 45.395 18.9667 44.1592 17.4465 44.1592ZM32.1369 44.1592C30.6141 44.1592 29.3834 45.395 29.3834 46.9204C29.3834 48.4432 30.6141 49.6791 32.1369 49.6791C33.6597 49.6791 34.8904 48.4432 34.8904 46.9204C34.8904 45.395 33.6597 44.1592 32.1369 44.1592ZM46.8273 44.1592C45.3071 44.1592 44.0739 45.395 44.0739 46.9204C44.0739 48.4432 45.3071 49.6791 46.8273 49.6791C48.3502 49.6791 49.5834 48.4432 49.5834 46.9204C49.5834 45.395 48.3502 44.1592 46.8273 44.1592ZM61.5204 44.1592C59.9975 44.1592 58.7643 45.395 58.7643 46.9204C58.7643 48.4432 59.9975 49.6791 61.5204 49.6791C63.0406 49.6791 64.2738 48.4432 64.2738 46.9204C64.2738 45.395 63.0406 44.1592 61.5204 44.1592ZM76.2108 44.1592C74.688 44.1592 73.4547 45.395 73.4547 46.9204C73.4547 48.4432 74.688 49.6791 76.2108 49.6791C77.731 49.6791 78.9643 48.4432 78.9643 46.9204C78.9643 45.395 77.731 44.1592 76.2108 44.1592ZM90.9012 44.1592C89.381 44.1592 88.1477 45.395 88.1477 46.9204C88.1477 48.4432 89.381 49.6791 90.9012 49.6791C92.424 49.6791 93.6573 48.4432 93.6573 46.9204C93.6573 45.395 92.424 44.1592 90.9012 44.1592ZM105.592 44.1592C104.071 44.1592 102.838 45.395 102.838 46.9204C102.838 48.4432 104.071 49.6791 105.592 49.6791C107.114 49.6791 108.348 48.4432 108.348 46.9204C108.348 45.395 107.114 44.1592 105.592 44.1592ZM120.285 44.1592C118.762 44.1592 117.529 45.395 117.529 46.9204C117.529 48.4432 118.762 49.6791 120.285 49.6791C121.805 49.6791 123.038 48.4432 123.038 46.9204C123.038 45.395 121.805 44.1592 120.285 44.1592ZM134.975 44.1592C133.455 44.1592 132.222 45.395 132.222 46.9204C132.222 48.4432 133.455 49.6791 134.975 49.6791C136.498 49.6791 137.729 48.4432 137.729 46.9204C137.703 45.395 136.469 44.1592 134.975 44.1592ZM149.64 44.1592C148.119 44.1592 146.886 45.395 146.886 46.9204C146.886 48.4432 148.119 49.6791 149.64 49.6791C151.162 49.6791 152.396 48.4432 152.396 46.9204C152.396 45.395 151.162 44.1592 149.64 44.1592ZM2.75348 58.8806C1.23325 58.8806 0 60.1139 0 61.6393C0 63.1647 1.23325 64.4005 2.75348 64.4005C4.2763 64.4005 5.50956 63.1647 5.50956 61.6393C5.50956 60.1139 4.2763 58.8806 2.75348 58.8806ZM17.4465 58.8806C15.9237 58.8806 14.6904 60.1139 14.6904 61.6393C14.6904 63.1647 15.9237 64.4005 17.4465 64.4005C18.9667 64.4005 20.2 63.1647 20.2 61.6393C20.2 60.1139 18.9667 58.8806 17.4465 58.8806ZM32.1369 58.8806C30.6141 58.8806 29.3834 60.1139 29.3834 61.6393C29.3834 63.1647 30.6141 64.4005 32.1369 64.4005C33.6597 64.4005 34.8904 63.1647 34.8904 61.6393C34.8904 60.1139 33.6597 58.8806 32.1369 58.8806ZM46.8273 58.8806C45.3071 58.8806 44.0739 60.1139 44.0739 61.6393C44.0739 63.1647 45.3071 64.4005 46.8273 64.4005C48.3502 64.4005 49.5834 63.1647 49.5834 61.6393C49.5834 60.1139 48.3502 58.8806 46.8273 58.8806ZM61.5204 58.8806C59.9975 58.8806 58.7643 60.1139 58.7643 61.6393C58.7643 63.1647 59.9975 64.4005 61.5204 64.4005C63.0406 64.4005 64.2738 63.1647 64.2738 61.6393C64.2738 60.1139 63.0406 58.8806 61.5204 58.8806ZM76.2108 58.8806C74.688 58.8806 73.4547 60.1139 73.4547 61.6393C73.4547 63.1647 74.688 64.4005 76.2108 64.4005C77.731 64.4005 78.9643 63.1647 78.9643 61.6393C78.9643 60.1139 77.731 58.8806 76.2108 58.8806ZM90.9012 58.8806C89.381 58.8806 88.1477 60.1139 88.1477 61.6393C88.1477 63.1647 89.381 64.4005 90.9012 64.4005C92.424 64.4005 93.6573 63.1647 93.6573 61.6393C93.6573 60.1139 92.424 58.8806 90.9012 58.8806ZM105.592 58.8806C104.071 58.8806 102.838 60.1139 102.838 61.6393C102.838 63.1647 104.071 64.4005 105.592 64.4005C107.114 64.4005 108.348 63.1647 108.348 61.6393C108.348 60.1139 107.114 58.8806 105.592 58.8806ZM120.285 58.8806C118.762 58.8806 117.529 60.1139 117.529 61.6393C117.529 63.1647 118.762 64.4005 120.285 64.4005C121.805 64.4005 123.038 63.1647 123.038 61.6393C123.038 60.1139 121.805 58.8806 120.285 58.8806ZM134.975 58.8806C133.455 58.8806 132.222 60.1139 132.222 61.6393C132.222 63.1647 133.455 64.4005 134.975 64.4005C136.498 64.4005 137.729 63.1647 137.729 61.6393C137.703 60.1139 136.469 58.8806 134.975 58.8806ZM149.64 58.8806C148.119 58.8806 146.886 60.1139 146.886 61.6393C146.886 63.1647 148.119 64.4005 149.64 64.4005C151.162 64.4005 152.396 63.1647 152.396 61.6393C152.396 60.1139 151.162 58.8806 149.64 58.8806ZM2.75348 73.5995C1.23325 73.5995 0 74.8353 0 76.3581C0 77.8835 1.23325 79.1194 2.75348 79.1194C4.2763 79.1194 5.50956 77.8835 5.50956 76.3581C5.50956 74.8353 4.2763 73.5995 2.75348 73.5995ZM17.4465 73.5995C15.9237 73.5995 14.6904 74.8353 14.6904 76.3581C14.6904 77.8835 15.9237 79.1194 17.4465 79.1194C18.9667 79.1194 20.2 77.8835 20.2 76.3581C20.2 74.8353 18.9667 73.5995 17.4465 73.5995ZM32.1369 73.5995C30.6141 73.5995 29.3834 74.8353 29.3834 76.3581C29.3834 77.8835 30.6141 79.1194 32.1369 79.1194C33.6597 79.1194 34.8904 77.8835 34.8904 76.3581C34.8904 74.8353 33.6597 73.5995 32.1369 73.5995ZM46.8273 73.5995C45.3071 73.5995 44.0739 74.8353 44.0739 76.3581C44.0739 77.8835 45.3071 79.1194 46.8273 79.1194C48.3502 79.1194 49.5834 77.8835 49.5834 76.3581C49.5834 74.8353 48.3502 73.5995 46.8273 73.5995ZM61.5204 73.5995C59.9975 73.5995 58.7643 74.8353 58.7643 76.3581C58.7643 77.8835 59.9975 79.1194 61.5204 79.1194C63.0406 79.1194 64.2738 77.8835 64.2738 76.3581C64.2738 74.8353 63.0406 73.5995 61.5204 73.5995ZM76.2108 73.5995C74.688 73.5995 73.4547 74.8353 73.4547 76.3581C73.4547 77.8835 74.688 79.1194 76.2108 79.1194C77.731 79.1194 78.9643 77.8835 78.9643 76.3581C78.9643 74.8353 77.731 73.5995 76.2108 73.5995ZM90.9012 73.5995C89.381 73.5995 88.1477 74.8353 88.1477 76.3581C88.1477 77.8835 89.381 79.1194 90.9012 79.1194C92.424 79.1194 93.6573 77.8835 93.6573 76.3581C93.6573 74.8353 92.424 73.5995 90.9012 73.5995ZM105.592 73.5995C104.071 73.5995 102.838 74.8353 102.838 76.3581C102.838 77.8835 104.071 79.1194 105.592 79.1194C107.114 79.1194 108.348 77.8835 108.348 76.3581C108.348 74.8353 107.114 73.5995 105.592 73.5995ZM120.285 73.5995C118.762 73.5995 117.529 74.8353 117.529 76.3581C117.529 77.8835 118.762 79.1194 120.285 79.1194C121.805 79.1194 123.038 77.8835 123.038 76.3581C123.038 74.8353 121.805 73.5995 120.285 73.5995ZM134.975 73.5995C133.455 73.5995 132.222 74.8353 132.222 76.3581C132.222 77.8835 133.455 79.1194 134.975 79.1194C136.498 79.1194 137.729 77.8835 137.729 76.3581C137.703 74.8353 136.469 73.5995 134.975 73.5995ZM149.64 73.5995C148.119 73.5995 146.886 74.8353 146.886 76.3581C146.886 77.8835 148.119 79.1194 149.64 79.1194C151.162 79.1194 152.396 77.8835 152.396 76.3581C152.396 74.8353 151.162 73.5995 149.64 73.5995ZM2.75348 88.3183C1.23325 88.3183 0 89.5542 0 91.0796C0 92.605 1.23325 93.8382 2.75348 93.8382C4.2763 93.8382 5.50956 92.605 5.50956 91.0796C5.50956 89.5542 4.2763 88.3183 2.75348 88.3183ZM17.4465 88.3183C15.9237 88.3183 14.6904 89.5542 14.6904 91.0796C14.6904 92.605 15.9237 93.8382 17.4465 93.8382C18.9667 93.8382 20.2 92.605 20.2 91.0796C20.2 89.5542 18.9667 88.3183 17.4465 88.3183ZM32.1369 88.3183C30.6141 88.3183 29.3834 89.5542 29.3834 91.0796C29.3834 92.605 30.6141 93.8382 32.1369 93.8382C33.6597 93.8382 34.8904 92.605 34.8904 91.0796C34.8904 89.5542 33.6597 88.3183 32.1369 88.3183ZM46.8273 88.3183C45.3071 88.3183 44.0739 89.5542 44.0739 91.0796C44.0739 92.605 45.3071 93.8382 46.8273 93.8382C48.3502 93.8382 49.5834 92.605 49.5834 91.0796C49.5834 89.5542 48.3502 88.3183 46.8273 88.3183ZM61.5204 88.3183C59.9975 88.3183 58.7643 89.5542 58.7643 91.0796C58.7643 92.605 59.9975 93.8382 61.5204 93.8382C63.0406 93.8382 64.2738 92.605 64.2738 91.0796C64.2738 89.5542 63.0406 88.3183 61.5204 88.3183ZM76.2108 88.3183C74.688 88.3183 73.4547 89.5542 73.4547 91.0796C73.4547 92.605 74.688 93.8382 76.2108 93.8382C77.731 93.8382 78.9643 92.605 78.9643 91.0796C78.9643 89.5542 77.731 88.3183 76.2108 88.3183ZM90.9012 88.3183C89.381 88.3183 88.1477 89.5542 88.1477 91.0796C88.1477 92.605 89.381 93.8382 90.9012 93.8382C92.424 93.8382 93.6573 92.605 93.6573 91.0796C93.6573 89.5542 92.424 88.3183 90.9012 88.3183ZM105.592 88.3183C104.071 88.3183 102.838 89.5542 102.838 91.0796C102.838 92.605 104.071 93.8382 105.592 93.8382C107.114 93.8382 108.348 92.605 108.348 91.0796C108.348 89.5542 107.114 88.3183 105.592 88.3183ZM120.285 88.3183C118.762 88.3183 117.529 89.5542 117.529 91.0796C117.529 92.605 118.762 93.8382 120.285 93.8382C121.805 93.8382 123.038 92.605 123.038 91.0796C123.038 89.5542 121.805 88.3183 120.285 88.3183ZM134.975 88.3183C133.455 88.3183 132.222 89.5542 132.222 91.0796C132.222 92.605 133.455 93.8382 134.975 93.8382C136.498 93.8382 137.729 92.605 137.729 91.0796C137.729 89.5542 136.469 88.3183 134.975 88.3183ZM149.64 88.3183C148.119 88.3183 146.886 89.5542 146.886 91.0796C146.886 92.605 148.119 93.8382 149.64 93.8382C151.162 93.8382 152.396 92.605 152.396 91.0796C152.396 89.5542 151.162 88.3183 149.64 88.3183ZM2.75348 103.04C1.23325 103.04 0 104.276 0 105.798C0 107.324 1.23325 108.56 2.75348 108.56C4.2763 108.56 5.50956 107.324 5.50956 105.798C5.50956 104.276 4.2763 103.04 2.75348 103.04ZM17.4465 103.04C15.9237 103.04 14.6904 104.276 14.6904 105.798C14.6904 107.324 15.9237 108.56 17.4465 108.56C18.9667 108.56 20.2 107.324 20.2 105.798C20.2 104.276 18.9667 103.04 17.4465 103.04ZM32.1369 103.04C30.6141 103.04 29.3834 104.276 29.3834 105.798C29.3834 107.324 30.6141 108.56 32.1369 108.56C33.6597 108.56 34.8904 107.324 34.8904 105.798C34.8904 104.276 33.6597 103.04 32.1369 103.04ZM46.8273 103.04C45.3071 103.04 44.0739 104.276 44.0739 105.798C44.0739 107.324 45.3071 108.56 46.8273 108.56C48.3502 108.56 49.5834 107.324 49.5834 105.798C49.5834 104.276 48.3502 103.04 46.8273 103.04ZM61.5204 103.04C59.9975 103.04 58.7643 104.276 58.7643 105.798C58.7643 107.324 59.9975 108.56 61.5204 108.56C63.0406 108.56 64.2738 107.324 64.2738 105.798C64.2738 104.276 63.0406 103.04 61.5204 103.04ZM76.2108 103.04C74.688 103.04 73.4547 104.276 73.4547 105.798C73.4547 107.324 74.688 108.56 76.2108 108.56C77.731 108.56 78.9643 107.324 78.9643 105.798C78.9643 104.276 77.731 103.04 76.2108 103.04ZM90.9012 103.04C89.381 103.04 88.1477 104.276 88.1477 105.798C88.1477 107.324 89.381 108.56 90.9012 108.56C92.424 108.56 93.6573 107.324 93.6573 105.798C93.6573 104.276 92.424 103.04 90.9012 103.04ZM105.592 103.04C104.071 103.04 102.838 104.276 102.838 105.798C102.838 107.324 104.071 108.56 105.592 108.56C107.114 108.56 108.348 107.324 108.348 105.798C108.348 104.276 107.114 103.04 105.592 103.04ZM120.285 103.04C118.762 103.04 117.529 104.276 117.529 105.798C117.529 107.324 118.762 108.56 120.285 108.56C121.805 108.56 123.038 107.324 123.038 105.798C123.038 104.276 121.805 103.04 120.285 103.04ZM134.975 103.04C133.455 103.04 132.222 104.276 132.222 105.798C132.222 107.324 133.455 108.56 134.975 108.56C136.498 108.56 137.729 107.324 137.729 105.798C137.729 104.276 136.469 103.04 134.975 103.04ZM149.64 103.04C148.119 103.04 146.886 104.276 146.886 105.798C146.886 107.324 148.119 108.56 149.64 108.56C151.162 108.56 152.396 107.324 152.396 105.798C152.396 104.276 151.162 103.04 149.64 103.04ZM2.75348 117.759C1.23325 117.759 0 118.994 0 120.52C0 122.043 1.23325 123.279 2.75348 123.279C4.2763 123.279 5.50956 122.043 5.50956 120.52C5.50956 118.994 4.2763 117.759 2.75348 117.759ZM17.4465 117.759C15.9237 117.759 14.6904 118.994 14.6904 120.52C14.6904 122.043 15.9237 123.279 17.4465 123.279C18.9667 123.279 20.2 122.043 20.2 120.52C20.2 118.994 18.9667 117.759 17.4465 117.759ZM32.1369 117.759C30.6141 117.759 29.3834 118.994 29.3834 120.52C29.3834 122.043 30.6141 123.279 32.1369 123.279C33.6597 123.279 34.8904 122.043 34.8904 120.52C34.8904 118.994 33.6597 117.759 32.1369 117.759ZM46.8273 117.759C45.3071 117.759 44.0739 118.994 44.0739 120.52C44.0739 122.043 45.3071 123.279 46.8273 123.279C48.3502 123.279 49.5834 122.043 49.5834 120.52C49.5834 118.994 48.3502 117.759 46.8273 117.759ZM61.5204 117.759C59.9975 117.759 58.7643 118.994 58.7643 120.52C58.7643 122.043 59.9975 123.279 61.5204 123.279C63.0406 123.279 64.2738 122.043 64.2738 120.52C64.2738 118.994 63.0406 117.759 61.5204 117.759ZM76.2108 117.759C74.688 117.759 73.4547 118.994 73.4547 120.52C73.4547 122.043 74.688 123.279 76.2108 123.279C77.731 123.279 78.9643 122.043 78.9643 120.52C78.9643 118.994 77.731 117.759 76.2108 117.759ZM90.9012 117.759C89.381 117.759 88.1477 118.994 88.1477 120.52C88.1477 122.043 89.381 123.279 90.9012 123.279C92.424 123.279 93.6573 122.043 93.6573 120.52C93.6573 118.994 92.424 117.759 90.9012 117.759ZM105.592 117.759C104.071 117.759 102.838 118.994 102.838 120.52C102.838 122.043 104.071 123.279 105.592 123.279C107.114 123.279 108.348 122.043 108.348 120.52C108.348 118.994 107.114 117.759 105.592 117.759ZM120.285 117.759C118.762 117.759 117.529 118.994 117.529 120.52C117.529 122.043 118.762 123.279 120.285 123.279C121.805 123.279 123.038 122.043 123.038 120.52C123.038 118.994 121.805 117.759 120.285 117.759ZM134.975 117.759C133.455 117.759 132.222 118.994 132.222 120.52C132.222 122.043 133.455 123.279 134.975 123.279C136.498 123.279 137.729 122.043 137.729 120.52C137.703 118.994 136.469 117.759 134.975 117.759ZM149.64 117.759C148.119 117.759 146.886 118.994 146.886 120.52C146.886 122.043 148.119 123.279 149.64 123.279C151.162 123.279 152.396 122.043 152.396 120.52C152.396 118.994 151.162 117.759 149.64 117.759ZM2.75348 132.48C1.23325 132.48 0 133.716 0 135.213C0 136.738 1.23325 137.974 2.75348 137.974C4.2763 137.974 5.50956 136.738 5.50956 135.213C5.50956 133.716 4.2763 132.48 2.75348 132.48ZM17.4465 132.48C15.9237 132.48 14.6904 133.716 14.6904 135.239C14.6904 136.764 15.9237 138 17.4465 138C18.9667 138 20.2 136.738 20.2 135.213C20.2 133.716 18.9667 132.48 17.4465 132.48ZM32.1369 132.48C30.6141 132.48 29.3834 133.716 29.3834 135.239C29.3834 136.764 30.6141 138 32.1369 138C33.6597 138 34.8904 136.764 34.8904 135.239C34.8904 133.716 33.6597 132.48 32.1369 132.48ZM46.8273 132.48C45.3071 132.48 44.0739 133.716 44.0739 135.239C44.0739 136.764 45.3071 138 46.8273 138C48.3502 138 49.5834 136.764 49.5834 135.239C49.5834 133.716 48.3502 132.48 46.8273 132.48ZM61.5204 132.48C59.9975 132.48 58.7643 133.716 58.7643 135.239C58.7643 136.764 59.9975 138 61.5204 138C63.0406 138 64.2738 136.764 64.2738 135.239C64.2738 133.716 63.0406 132.48 61.5204 132.48ZM76.2108 132.48C74.688 132.48 73.4547 133.716 73.4547 135.239C73.4547 136.764 74.688 138 76.2108 138C77.731 138 78.9643 136.764 78.9643 135.239C78.9643 133.716 77.731 132.48 76.2108 132.48ZM90.9012 132.48C89.381 132.48 88.1477 133.716 88.1477 135.239C88.1477 136.764 89.381 138 90.9012 138C92.424 138 93.6573 136.764 93.6573 135.239C93.6573 133.716 92.424 132.48 90.9012 132.48ZM105.592 132.48C104.071 132.48 102.838 133.716 102.838 135.239C102.838 136.764 104.071 138 105.592 138C107.114 138 108.348 136.764 108.348 135.239C108.348 133.716 107.114 132.48 105.592 132.48ZM120.285 132.48C118.762 132.48 117.529 133.716 117.529 135.239C117.529 136.764 118.762 138 120.285 138C121.805 138 123.038 136.764 123.038 135.239C123.038 133.716 121.805 132.48 120.285 132.48ZM134.975 132.48C133.455 132.48 132.222 133.716 132.222 135.239C132.222 136.764 133.455 138 134.975 138C136.498 138 137.729 136.764 137.729 135.239C137.703 133.716 136.469 132.48 134.975 132.48ZM149.64 132.48C148.119 132.48 146.886 133.716 146.886 135.239C146.886 136.764 148.119 138 149.64 138C151.162 138 152.396 136.764 152.396 135.239C152.396 133.716 151.162 132.48 149.64 132.48Z" fill="#D940FF"/>
</g>
</svg>
