<svg width="77" height="28" viewBox="0 0 77 28" fill="none" xmlns="http://www.w3.org/2000/svg">
<mask id="mask0_4375_5614" style="mask-type:luminance" maskUnits="userSpaceOnUse" x="0" y="0" width="105" height="28">
<path d="M0 0H105V27.1385H0V0Z" fill="white"/>
</mask>
<g mask="url(#mask0_4375_5614)">
<path fill-rule="evenodd" clip-rule="evenodd" d="M1.38654 26.6652L13.6483 18.9215L26.6017 27.1027L39.5567 18.9215L52.5101 27.1027L65.4635 18.9215L78.4185 27.1027L91.3887 18.9147L103.656 26.3102L104.998 24.6309L91.3567 16.4075L78.4185 24.5753L65.4635 16.3941L52.5101 24.5753L39.5567 16.3941L26.6017 24.5753L13.6483 16.3941L0 25.0145L1.38654 26.6652ZM1.38654 18.489L13.6483 10.747L26.6017 18.9215L39.5567 10.747L52.5101 18.9215L65.4635 10.747L78.4185 18.9215L91.3887 10.7318L103.656 18.1272L104.998 16.4496L91.3567 8.22628L78.4185 16.3941L65.4635 8.21787L52.5101 16.3941L39.5567 8.21787L26.6017 16.3941L13.6483 8.21787L0 16.8333L1.38654 18.489ZM1.38654 10.3078L13.6483 2.56402L26.6017 10.747L39.5567 2.56402L52.5101 10.747L65.4635 2.56402L78.4185 10.747L91.3887 2.55729L103.656 9.946L104.998 8.26667L91.3567 0.0433519L78.4185 8.21787L65.4635 0.0366211L52.5101 8.21787L39.5567 0.0366211L26.6017 8.21787L13.6483 0.0366211L0 8.65032L1.38654 10.3078Z" fill="#D940FF"/>
</g>
</svg>
