<svg width="76" height="28" viewBox="0 0 76 28" fill="none" xmlns="http://www.w3.org/2000/svg">
<mask id="mask0_4375_5609" style="mask-type:luminance" maskUnits="userSpaceOnUse" x="-29" y="0" width="105" height="28">
<path d="M-29 0H76V27.1385H-29V0Z" fill="white"/>
</mask>
<g mask="url(#mask0_4375_5609)">
<path fill-rule="evenodd" clip-rule="evenodd" d="M-27.6135 26.6652L-15.3517 18.9215L-2.39832 27.1027L10.5567 18.9215L23.5101 27.1027L36.4635 18.9215L49.4185 27.1027L62.3887 18.9147L74.6555 26.3102L75.9983 24.6309L62.3567 16.4075L49.4185 24.5753L36.4635 16.3941L23.5101 24.5753L10.5567 16.3941L-2.39832 24.5753L-15.3517 16.3941L-29 25.0145L-27.6135 26.6652ZM-27.6135 18.489L-15.3517 10.747L-2.39832 18.9215L10.5567 10.747L23.5101 18.9215L36.4635 10.747L49.4185 18.9215L62.3887 10.7318L74.6555 18.1272L75.9983 16.4496L62.3567 8.22628L49.4185 16.3941L36.4635 8.21787L23.5101 16.3941L10.5567 8.21787L-2.39832 16.3941L-15.3517 8.21787L-29 16.8333L-27.6135 18.489ZM-27.6135 10.3078L-15.3517 2.56402L-2.39832 10.747L10.5567 2.56402L23.5101 10.747L36.4635 2.56402L49.4185 10.747L62.3887 2.55729L74.6555 9.946L75.9983 8.26667L62.3567 0.0433519L49.4185 8.21787L36.4635 0.0366211L23.5101 8.21787L10.5567 0.0366211L-2.39832 8.21787L-15.3517 0.0366211L-29 8.65032L-27.6135 10.3078Z" fill="#3858FF"/>
</g>
</svg>
